<mxfile host="app.diagrams.net" agent="Mozilla/5.0 (Windows NT 10.0; Win64; x64) AppleWebKit/537.36 (KHTML, like Gecko) Chrome/141.0.0.0 Safari/537.36" version="28.2.7" pages="6">
  <diagram name="http request" id="UxgL_Y6BX05MLEZuSdHU">
    <mxGraphModel dx="1354" dy="825" grid="1" gridSize="10" guides="1" tooltips="1" connect="1" arrows="1" fold="1" page="1" pageScale="1" pageWidth="2000" pageHeight="2000" math="0" shadow="0">
      <root>
        <mxCell id="0" />
        <mxCell id="1" parent="0" />
        <mxCell id="z_8Uov9G1j8eYFmzYjri-6" value="" style="shape=actor;whiteSpace=wrap;html=1;" vertex="1" parent="1">
          <mxGeometry x="270" y="300" width="40" height="60" as="geometry" />
        </mxCell>
        <mxCell id="z_8Uov9G1j8eYFmzYjri-7" value="Player" style="text;html=1;whiteSpace=wrap;strokeColor=none;fillColor=none;align=center;verticalAlign=middle;rounded=0;" vertex="1" parent="1">
          <mxGeometry x="260" y="360" width="60" height="30" as="geometry" />
        </mxCell>
        <mxCell id="z_8Uov9G1j8eYFmzYjri-9" value="" style="sketch=0;outlineConnect=0;fontColor=#232F3E;gradientColor=none;fillColor=#8C4FFF;strokeColor=none;dashed=0;verticalLabelPosition=bottom;verticalAlign=top;align=center;html=1;fontSize=12;fontStyle=0;aspect=fixed;pointerEvents=1;shape=mxgraph.aws4.network_load_balancer;" vertex="1" parent="1">
          <mxGeometry x="412" y="310" width="58" height="58" as="geometry" />
        </mxCell>
        <mxCell id="z_8Uov9G1j8eYFmzYjri-10" value="" style="endArrow=classic;html=1;rounded=0;exitX=0.938;exitY=0.65;exitDx=0;exitDy=0;exitPerimeter=0;" edge="1" parent="1" source="z_8Uov9G1j8eYFmzYjri-6" target="z_8Uov9G1j8eYFmzYjri-9">
          <mxGeometry width="50" height="50" relative="1" as="geometry">
            <mxPoint x="290" y="340" as="sourcePoint" />
            <mxPoint x="710" y="400" as="targetPoint" />
          </mxGeometry>
        </mxCell>
        <mxCell id="z_8Uov9G1j8eYFmzYjri-11" value="http request" style="text;html=1;whiteSpace=wrap;strokeColor=none;fillColor=none;align=center;verticalAlign=middle;rounded=0;" vertex="1" parent="1">
          <mxGeometry x="310" y="315" width="90" height="30" as="geometry" />
        </mxCell>
        <mxCell id="z_8Uov9G1j8eYFmzYjri-12" value="HAProxy" style="text;html=1;whiteSpace=wrap;strokeColor=none;fillColor=none;align=center;verticalAlign=middle;rounded=0;" vertex="1" parent="1">
          <mxGeometry x="410" y="360" width="60" height="30" as="geometry" />
        </mxCell>
        <mxCell id="z_8Uov9G1j8eYFmzYjri-13" value="" style="rounded=1;whiteSpace=wrap;html=1;" vertex="1" parent="1">
          <mxGeometry x="550" y="228" width="120" height="222" as="geometry" />
        </mxCell>
        <mxCell id="z_8Uov9G1j8eYFmzYjri-14" value="gateway" style="rounded=0;whiteSpace=wrap;html=1;" vertex="1" parent="1">
          <mxGeometry x="565" y="240" width="90" height="40" as="geometry" />
        </mxCell>
        <mxCell id="z_8Uov9G1j8eYFmzYjri-15" value="gateway" style="rounded=0;whiteSpace=wrap;html=1;" vertex="1" parent="1">
          <mxGeometry x="565" y="290" width="90" height="40" as="geometry" />
        </mxCell>
        <mxCell id="z_8Uov9G1j8eYFmzYjri-16" value="gateway" style="rounded=0;whiteSpace=wrap;html=1;" vertex="1" parent="1">
          <mxGeometry x="565" y="340" width="90" height="40" as="geometry" />
        </mxCell>
        <mxCell id="z_8Uov9G1j8eYFmzYjri-17" value="gateway" style="rounded=0;whiteSpace=wrap;html=1;" vertex="1" parent="1">
          <mxGeometry x="565" y="390" width="90" height="40" as="geometry" />
        </mxCell>
        <mxCell id="z_8Uov9G1j8eYFmzYjri-18" value="" style="endArrow=classic;html=1;rounded=0;entryX=0;entryY=0.5;entryDx=0;entryDy=0;" edge="1" parent="1" source="z_8Uov9G1j8eYFmzYjri-9" target="z_8Uov9G1j8eYFmzYjri-13">
          <mxGeometry width="50" height="50" relative="1" as="geometry">
            <mxPoint x="660" y="450" as="sourcePoint" />
            <mxPoint x="710" y="400" as="targetPoint" />
          </mxGeometry>
        </mxCell>
        <mxCell id="z_8Uov9G1j8eYFmzYjri-20" value="send" style="text;html=1;whiteSpace=wrap;strokeColor=none;fillColor=none;align=center;verticalAlign=middle;rounded=0;" vertex="1" parent="1">
          <mxGeometry x="480" y="310" width="60" height="30" as="geometry" />
        </mxCell>
        <mxCell id="z_8Uov9G1j8eYFmzYjri-21" value="" style="rounded=1;whiteSpace=wrap;html=1;" vertex="1" parent="1">
          <mxGeometry x="760" y="228" width="120" height="222" as="geometry" />
        </mxCell>
        <mxCell id="z_8Uov9G1j8eYFmzYjri-22" value="loginservice" style="rounded=0;whiteSpace=wrap;html=1;" vertex="1" parent="1">
          <mxGeometry x="775" y="240" width="90" height="40" as="geometry" />
        </mxCell>
        <mxCell id="z_8Uov9G1j8eYFmzYjri-23" value="loginservce" style="rounded=0;whiteSpace=wrap;html=1;" vertex="1" parent="1">
          <mxGeometry x="775" y="290" width="90" height="40" as="geometry" />
        </mxCell>
        <mxCell id="z_8Uov9G1j8eYFmzYjri-24" value="loginservice" style="rounded=0;whiteSpace=wrap;html=1;" vertex="1" parent="1">
          <mxGeometry x="775" y="340" width="90" height="40" as="geometry" />
        </mxCell>
        <mxCell id="z_8Uov9G1j8eYFmzYjri-25" value="loginservice" style="rounded=0;whiteSpace=wrap;html=1;" vertex="1" parent="1">
          <mxGeometry x="775" y="390" width="90" height="40" as="geometry" />
        </mxCell>
        <mxCell id="z_8Uov9G1j8eYFmzYjri-26" value="" style="endArrow=classic;html=1;rounded=0;entryX=0;entryY=0.5;entryDx=0;entryDy=0;exitX=1;exitY=0.5;exitDx=0;exitDy=0;" edge="1" parent="1" source="z_8Uov9G1j8eYFmzYjri-13" target="z_8Uov9G1j8eYFmzYjri-21">
          <mxGeometry width="50" height="50" relative="1" as="geometry">
            <mxPoint x="660" y="450" as="sourcePoint" />
            <mxPoint x="710" y="400" as="targetPoint" />
          </mxGeometry>
        </mxCell>
        <mxCell id="z_8Uov9G1j8eYFmzYjri-27" value="gRPC" style="text;html=1;whiteSpace=wrap;strokeColor=none;fillColor=none;align=center;verticalAlign=middle;rounded=0;" vertex="1" parent="1">
          <mxGeometry x="680" y="310" width="60" height="30" as="geometry" />
        </mxCell>
        <mxCell id="z_8Uov9G1j8eYFmzYjri-28" value="roundrobin" style="text;html=1;whiteSpace=wrap;strokeColor=none;fillColor=none;align=center;verticalAlign=middle;rounded=0;" vertex="1" parent="1">
          <mxGeometry x="680" y="340" width="60" height="30" as="geometry" />
        </mxCell>
        <mxCell id="z_8Uov9G1j8eYFmzYjri-29" value="roundrobin" style="text;html=1;whiteSpace=wrap;strokeColor=none;fillColor=none;align=center;verticalAlign=middle;rounded=0;" vertex="1" parent="1">
          <mxGeometry x="480" y="340" width="60" height="30" as="geometry" />
        </mxCell>
      </root>
    </mxGraphModel>
  </diagram>
  <diagram id="YDFkiDda9SCRgielC-vr" name="localCache-&gt;redis-&gt;db">
    <mxGraphModel dx="1354" dy="825" grid="1" gridSize="10" guides="1" tooltips="1" connect="1" arrows="1" fold="1" page="1" pageScale="1" pageWidth="2000" pageHeight="2000" math="0" shadow="0">
      <root>
        <mxCell id="0" />
        <mxCell id="1" parent="0" />
        <mxCell id="nR6v1T5VZjVHqQ8BDLPq-1" value="" style="fillColor=#ffffff;strokeColor=#dddddd;shadow=1;strokeWidth=1;rounded=1;absoluteArcSize=1;arcSize=2;" vertex="1" parent="1">
          <mxGeometry x="350" y="350" width="150" height="60" as="geometry" />
        </mxCell>
        <mxCell id="nR6v1T5VZjVHqQ8BDLPq-2" value="Local Cache" style="editableCssRules=.*;html=1;fontColor=#999999;shape=image;verticalLabelPosition=middle;verticalAlign=middle;labelPosition=right;align=left;spacingLeft=20;part=1;points=[];imageAspect=0;image=data:image/svg+xml,PHN2ZyB4bWxucz0iaHR0cDovL3d3dy53My5vcmcvMjAwMC9zdmciIHhtbG5zOnY9Imh0dHBzOi8vdmVjdGEuaW8vbmFubyIgd2lkdGg9IjIwIiBoZWlnaHQ9IjIwIiB2aWV3Qm94PSIwIDAgMjAgMjAiPiYjeGE7CTxzdHlsZSB0eXBlPSJ0ZXh0L2NzcyI+JiN4YTsJLnN0MHtmaWxsOiM0Mjg1ZjQ7fSYjeGE7CS5zdDF7ZmlsbDojNjY5ZGY2O30mI3hhOwkuc3Qye2ZpbGw6I2FlY2JmYTt9JiN4YTsJPC9zdHlsZT4mI3hhOwk8cGF0aCBjbGFzcz0ic3QxIiBkPSJNMCAxLjk0aDMuMzN2Mi41OEgwem0wIDQuNTFoMy4zM3YyLjU4SDB6bTAgNC41MmgzLjMzdjIuNThIMHptMCA0LjUxaDMuMzN2Mi41OEgwek0xNi42NyAxLjk0SDIwdjIuNThoLTMuMzN6bTAgNC41MUgyMHYyLjU4aC0zLjMzem0wIDQuNTJIMjB2Mi41OGgtMy4zM3ptMCA0LjUxSDIwdjIuNThoLTMuMzN6Ii8+JiN4YTsJPHBhdGggY2xhc3M9InN0MCIgZD0iTTE2LjY3IDEuOTRsMi42NiAyLjU4aC0yLjY2em0wIDQuNTFsMi42NiAyLjU4aC0yLjY2em0wIDQuNTJsMi42NiAyLjU4aC0yLjY2em0wIDQuNTFsMi42NiAyLjU5aC0yLjY2eiIgZmlsbC1ydWxlPSJldmVub2RkIi8+JiN4YTsJPHBhdGggY2xhc3M9InN0MiIgZD0iTTMuMzMgMjBoMTMuMzRWMEgzLjMzem02LTlINmw0LjY3LTcuNzRWOUgxNGwtNC42NyA3Ljc0eiIgZmlsbC1ydWxlPSJldmVub2RkIi8+JiN4YTsJPHBhdGggY2xhc3M9InN0MSIgZD0iTTE0IDkuMDNoLTMuMzNWMGg2djIwSDkuMzN2LTMuMjN6IiBmaWxsLXJ1bGU9ImV2ZW5vZGQiLz4mI3hhOzwvc3ZnPg==;" vertex="1" parent="nR6v1T5VZjVHqQ8BDLPq-1">
          <mxGeometry width="30" height="30" relative="1" as="geometry">
            <mxPoint x="15" y="15" as="offset" />
          </mxGeometry>
        </mxCell>
        <mxCell id="nR6v1T5VZjVHqQ8BDLPq-3" value="" style="points=[];aspect=fixed;html=1;align=center;shadow=0;dashed=0;fillColor=#FF6A00;strokeColor=none;shape=mxgraph.alibaba_cloud.redis_kvstore;" vertex="1" parent="1">
          <mxGeometry x="570" y="354.65000000000003" width="64.29" height="50.7" as="geometry" />
        </mxCell>
        <mxCell id="nR6v1T5VZjVHqQ8BDLPq-4" value="" style="outlineConnect=0;dashed=0;verticalLabelPosition=bottom;verticalAlign=top;align=center;html=1;shape=mxgraph.aws3.mysql_db_instance_2;fillColor=#2E73B8;gradientColor=none;" vertex="1" parent="1">
          <mxGeometry x="710" y="348.5" width="60" height="63" as="geometry" />
        </mxCell>
        <mxCell id="nR6v1T5VZjVHqQ8BDLPq-5" value="" style="endArrow=classic;html=1;rounded=0;entryX=0;entryY=0.5;entryDx=0;entryDy=0;" edge="1" parent="1" target="nR6v1T5VZjVHqQ8BDLPq-1">
          <mxGeometry width="50" height="50" relative="1" as="geometry">
            <mxPoint x="290" y="380" as="sourcePoint" />
            <mxPoint x="240" y="355.35" as="targetPoint" />
          </mxGeometry>
        </mxCell>
        <mxCell id="nR6v1T5VZjVHqQ8BDLPq-6" value="" style="endArrow=classic;html=1;rounded=0;" edge="1" parent="1">
          <mxGeometry width="50" height="50" relative="1" as="geometry">
            <mxPoint x="500" y="381" as="sourcePoint" />
            <mxPoint x="570" y="381" as="targetPoint" />
          </mxGeometry>
        </mxCell>
        <mxCell id="nR6v1T5VZjVHqQ8BDLPq-7" value="" style="endArrow=classic;html=1;rounded=0;entryX=0;entryY=0.5;entryDx=0;entryDy=0;entryPerimeter=0;" edge="1" parent="1" target="nR6v1T5VZjVHqQ8BDLPq-4">
          <mxGeometry width="50" height="50" relative="1" as="geometry">
            <mxPoint x="634.29" y="379.5" as="sourcePoint" />
            <mxPoint x="774.29" y="379.5" as="targetPoint" />
          </mxGeometry>
        </mxCell>
      </root>
    </mxGraphModel>
  </diagram>
  <diagram id="EUo40izdYUJKFLZ9e_Vn" name="TCP">
    <mxGraphModel dx="1354" dy="825" grid="1" gridSize="10" guides="1" tooltips="1" connect="1" arrows="1" fold="1" page="1" pageScale="1" pageWidth="2000" pageHeight="2000" math="0" shadow="0">
      <root>
        <mxCell id="0" />
        <mxCell id="1" parent="0" />
        <mxCell id="dJlrx8bix1s7Q6icLuL4-29" value="" style="rounded=0;whiteSpace=wrap;html=1;dashed=1;" vertex="1" parent="1">
          <mxGeometry x="330" y="150" width="650" height="620" as="geometry" />
        </mxCell>
        <mxCell id="HDeNdTc6rmB_HvEpzH3E-1" value="" style="shape=actor;whiteSpace=wrap;html=1;" vertex="1" parent="1">
          <mxGeometry x="180" y="430" width="40" height="60" as="geometry" />
        </mxCell>
        <mxCell id="HDeNdTc6rmB_HvEpzH3E-2" value="" style="shape=actor;whiteSpace=wrap;html=1;" vertex="1" parent="1">
          <mxGeometry x="190" y="430" width="40" height="60" as="geometry" />
        </mxCell>
        <mxCell id="HDeNdTc6rmB_HvEpzH3E-3" value="" style="shape=actor;whiteSpace=wrap;html=1;" vertex="1" parent="1">
          <mxGeometry x="200" y="430" width="40" height="60" as="geometry" />
        </mxCell>
        <mxCell id="HDeNdTc6rmB_HvEpzH3E-4" value="" style="shape=actor;whiteSpace=wrap;html=1;" vertex="1" parent="1">
          <mxGeometry x="210" y="430" width="40" height="60" as="geometry" />
        </mxCell>
        <mxCell id="HDeNdTc6rmB_HvEpzH3E-5" value="SG Players" style="text;html=1;whiteSpace=wrap;strokeColor=none;fillColor=none;align=center;verticalAlign=middle;rounded=0;" vertex="1" parent="1">
          <mxGeometry x="180" y="490" width="70" height="30" as="geometry" />
        </mxCell>
        <mxCell id="dJlrx8bix1s7Q6icLuL4-1" value="" style="rounded=1;whiteSpace=wrap;html=1;" vertex="1" parent="1">
          <mxGeometry x="360" y="350" width="120" height="222" as="geometry" />
        </mxCell>
        <mxCell id="dJlrx8bix1s7Q6icLuL4-2" value="notification" style="rounded=0;whiteSpace=wrap;html=1;" vertex="1" parent="1">
          <mxGeometry x="375" y="362" width="90" height="40" as="geometry" />
        </mxCell>
        <mxCell id="dJlrx8bix1s7Q6icLuL4-3" value="notification" style="rounded=0;whiteSpace=wrap;html=1;" vertex="1" parent="1">
          <mxGeometry x="375" y="412" width="90" height="40" as="geometry" />
        </mxCell>
        <mxCell id="dJlrx8bix1s7Q6icLuL4-4" value="notification" style="rounded=0;whiteSpace=wrap;html=1;" vertex="1" parent="1">
          <mxGeometry x="375" y="462" width="90" height="40" as="geometry" />
        </mxCell>
        <mxCell id="dJlrx8bix1s7Q6icLuL4-5" value="notification" style="rounded=0;whiteSpace=wrap;html=1;" vertex="1" parent="1">
          <mxGeometry x="375" y="512" width="90" height="40" as="geometry" />
        </mxCell>
        <mxCell id="dJlrx8bix1s7Q6icLuL4-6" value="" style="endArrow=classic;startArrow=classic;html=1;rounded=0;exitX=0.9;exitY=0.5;exitDx=0;exitDy=0;entryX=0;entryY=0.5;entryDx=0;entryDy=0;exitPerimeter=0;" edge="1" parent="1" source="HDeNdTc6rmB_HvEpzH3E-4" target="dJlrx8bix1s7Q6icLuL4-1">
          <mxGeometry width="50" height="50" relative="1" as="geometry">
            <mxPoint x="670" y="611" as="sourcePoint" />
            <mxPoint x="720" y="561" as="targetPoint" />
          </mxGeometry>
        </mxCell>
        <mxCell id="dJlrx8bix1s7Q6icLuL4-7" value="TCP" style="text;html=1;whiteSpace=wrap;strokeColor=none;fillColor=none;align=center;verticalAlign=middle;rounded=0;" vertex="1" parent="1">
          <mxGeometry x="270" y="430" width="60" height="30" as="geometry" />
        </mxCell>
        <mxCell id="dJlrx8bix1s7Q6icLuL4-8" value="" style="rounded=1;whiteSpace=wrap;html=1;" vertex="1" parent="1">
          <mxGeometry x="580" y="350" width="120" height="222" as="geometry" />
        </mxCell>
        <mxCell id="dJlrx8bix1s7Q6icLuL4-9" value="regionproxy" style="rounded=0;whiteSpace=wrap;html=1;" vertex="1" parent="1">
          <mxGeometry x="595" y="362" width="90" height="40" as="geometry" />
        </mxCell>
        <mxCell id="dJlrx8bix1s7Q6icLuL4-10" value="regionproxy" style="rounded=0;whiteSpace=wrap;html=1;" vertex="1" parent="1">
          <mxGeometry x="595" y="412" width="90" height="40" as="geometry" />
        </mxCell>
        <mxCell id="dJlrx8bix1s7Q6icLuL4-11" value="regionproxy" style="rounded=0;whiteSpace=wrap;html=1;" vertex="1" parent="1">
          <mxGeometry x="595" y="462" width="90" height="40" as="geometry" />
        </mxCell>
        <mxCell id="dJlrx8bix1s7Q6icLuL4-12" value="regionproxy" style="rounded=0;whiteSpace=wrap;html=1;" vertex="1" parent="1">
          <mxGeometry x="595" y="512" width="90" height="40" as="geometry" />
        </mxCell>
        <mxCell id="dJlrx8bix1s7Q6icLuL4-13" value="" style="endArrow=classic;html=1;rounded=0;entryX=0;entryY=0.25;entryDx=0;entryDy=0;exitX=1;exitY=0.25;exitDx=0;exitDy=0;" edge="1" parent="1" source="dJlrx8bix1s7Q6icLuL4-1" target="dJlrx8bix1s7Q6icLuL4-8">
          <mxGeometry width="50" height="50" relative="1" as="geometry">
            <mxPoint x="490" y="447" as="sourcePoint" />
            <mxPoint x="720" y="421" as="targetPoint" />
          </mxGeometry>
        </mxCell>
        <mxCell id="dJlrx8bix1s7Q6icLuL4-14" value="" style="endArrow=classic;html=1;rounded=0;entryX=1;entryY=0.75;entryDx=0;entryDy=0;exitX=0;exitY=0.75;exitDx=0;exitDy=0;" edge="1" parent="1" source="dJlrx8bix1s7Q6icLuL4-8" target="dJlrx8bix1s7Q6icLuL4-1">
          <mxGeometry width="50" height="50" relative="1" as="geometry">
            <mxPoint x="770" y="601" as="sourcePoint" />
            <mxPoint x="870" y="601" as="targetPoint" />
          </mxGeometry>
        </mxCell>
        <mxCell id="dJlrx8bix1s7Q6icLuL4-15" value="" style="rounded=1;whiteSpace=wrap;html=1;" vertex="1" parent="1">
          <mxGeometry x="810" y="180" width="120" height="222" as="geometry" />
        </mxCell>
        <mxCell id="dJlrx8bix1s7Q6icLuL4-16" value="matchmaking" style="rounded=0;whiteSpace=wrap;html=1;" vertex="1" parent="1">
          <mxGeometry x="825" y="192" width="90" height="40" as="geometry" />
        </mxCell>
        <mxCell id="dJlrx8bix1s7Q6icLuL4-17" value="matchmaking" style="rounded=0;whiteSpace=wrap;html=1;" vertex="1" parent="1">
          <mxGeometry x="825" y="242" width="90" height="40" as="geometry" />
        </mxCell>
        <mxCell id="dJlrx8bix1s7Q6icLuL4-18" value="matchmaking" style="rounded=0;whiteSpace=wrap;html=1;" vertex="1" parent="1">
          <mxGeometry x="825" y="292" width="90" height="40" as="geometry" />
        </mxCell>
        <mxCell id="dJlrx8bix1s7Q6icLuL4-19" value="matchmaking" style="rounded=0;whiteSpace=wrap;html=1;" vertex="1" parent="1">
          <mxGeometry x="825" y="342" width="90" height="40" as="geometry" />
        </mxCell>
        <mxCell id="dJlrx8bix1s7Q6icLuL4-20" value="" style="rounded=1;whiteSpace=wrap;html=1;" vertex="1" parent="1">
          <mxGeometry x="810" y="512" width="120" height="222" as="geometry" />
        </mxCell>
        <mxCell id="dJlrx8bix1s7Q6icLuL4-21" value="groupservice" style="rounded=0;whiteSpace=wrap;html=1;" vertex="1" parent="1">
          <mxGeometry x="825" y="524" width="90" height="40" as="geometry" />
        </mxCell>
        <mxCell id="dJlrx8bix1s7Q6icLuL4-22" value="groupservice" style="rounded=0;whiteSpace=wrap;html=1;" vertex="1" parent="1">
          <mxGeometry x="825" y="574" width="90" height="40" as="geometry" />
        </mxCell>
        <mxCell id="dJlrx8bix1s7Q6icLuL4-23" value="groupservice" style="rounded=0;whiteSpace=wrap;html=1;" vertex="1" parent="1">
          <mxGeometry x="825" y="624" width="90" height="40" as="geometry" />
        </mxCell>
        <mxCell id="dJlrx8bix1s7Q6icLuL4-24" value="groupservice" style="rounded=0;whiteSpace=wrap;html=1;" vertex="1" parent="1">
          <mxGeometry x="825" y="674" width="90" height="40" as="geometry" />
        </mxCell>
        <mxCell id="dJlrx8bix1s7Q6icLuL4-25" value="" style="endArrow=classic;html=1;rounded=0;entryX=0;entryY=0.5;entryDx=0;entryDy=0;exitX=1;exitY=0.25;exitDx=0;exitDy=0;" edge="1" parent="1" source="dJlrx8bix1s7Q6icLuL4-8" target="dJlrx8bix1s7Q6icLuL4-15">
          <mxGeometry width="50" height="50" relative="1" as="geometry">
            <mxPoint x="620" y="431" as="sourcePoint" />
            <mxPoint x="720" y="431" as="targetPoint" />
          </mxGeometry>
        </mxCell>
        <mxCell id="dJlrx8bix1s7Q6icLuL4-26" value="" style="endArrow=classic;html=1;rounded=0;entryX=0;entryY=0.5;entryDx=0;entryDy=0;exitX=1;exitY=0.75;exitDx=0;exitDy=0;" edge="1" parent="1" source="dJlrx8bix1s7Q6icLuL4-8" target="dJlrx8bix1s7Q6icLuL4-20">
          <mxGeometry width="50" height="50" relative="1" as="geometry">
            <mxPoint x="810" y="446" as="sourcePoint" />
            <mxPoint x="920" y="331" as="targetPoint" />
          </mxGeometry>
        </mxCell>
        <mxCell id="dJlrx8bix1s7Q6icLuL4-27" value="" style="endArrow=classic;html=1;rounded=0;entryX=0.983;entryY=0.421;entryDx=0;entryDy=0;exitX=0;exitY=0.75;exitDx=0;exitDy=0;entryPerimeter=0;" edge="1" parent="1" source="dJlrx8bix1s7Q6icLuL4-15" target="dJlrx8bix1s7Q6icLuL4-8">
          <mxGeometry width="50" height="50" relative="1" as="geometry">
            <mxPoint x="780" y="516" as="sourcePoint" />
            <mxPoint x="890" y="401" as="targetPoint" />
          </mxGeometry>
        </mxCell>
        <mxCell id="dJlrx8bix1s7Q6icLuL4-28" value="" style="endArrow=classic;html=1;rounded=0;entryX=1.008;entryY=0.619;entryDx=0;entryDy=0;exitX=0;exitY=0.25;exitDx=0;exitDy=0;entryPerimeter=0;" edge="1" parent="1" source="dJlrx8bix1s7Q6icLuL4-20" target="dJlrx8bix1s7Q6icLuL4-8">
          <mxGeometry width="50" height="50" relative="1" as="geometry">
            <mxPoint x="790" y="601" as="sourcePoint" />
            <mxPoint x="900" y="707" as="targetPoint" />
          </mxGeometry>
        </mxCell>
        <mxCell id="dJlrx8bix1s7Q6icLuL4-30" value="&lt;font style=&quot;font-size: 20px;&quot;&gt;SG&amp;nbsp; Region Services&lt;/font&gt;" style="text;html=1;whiteSpace=wrap;strokeColor=none;fillColor=none;align=center;verticalAlign=middle;rounded=0;" vertex="1" parent="1">
          <mxGeometry x="350" y="162" width="220" height="78" as="geometry" />
        </mxCell>
      </root>
    </mxGraphModel>
  </diagram>
  <diagram id="Z8bF_6JfFAdVGGcxI4lQ" name="matchmaking">
    <mxGraphModel dx="1354" dy="825" grid="1" gridSize="10" guides="1" tooltips="1" connect="1" arrows="1" fold="1" page="1" pageScale="1" pageWidth="2000" pageHeight="2000" math="0" shadow="0">
      <root>
        <mxCell id="0" />
        <mxCell id="1" parent="0" />
        <mxCell id="I7LE8Zz5mNCwxYkYfRfd-1" value="" style="endArrow=classic;html=1;rounded=0;strokeWidth=4;fillColor=#e1d5e7;strokeColor=#9673a6;" edge="1" parent="1">
          <mxGeometry width="50" height="50" relative="1" as="geometry">
            <mxPoint x="600" y="400" as="sourcePoint" />
            <mxPoint x="770" y="400" as="targetPoint" />
          </mxGeometry>
        </mxCell>
        <mxCell id="I7LE8Zz5mNCwxYkYfRfd-3" value="" style="endArrow=none;html=1;rounded=0;strokeWidth=4;fillColor=#fff2cc;strokeColor=#d6b656;" edge="1" parent="1">
          <mxGeometry width="50" height="50" relative="1" as="geometry">
            <mxPoint x="450" y="400" as="sourcePoint" />
            <mxPoint x="600" y="400" as="targetPoint" />
          </mxGeometry>
        </mxCell>
        <mxCell id="I7LE8Zz5mNCwxYkYfRfd-4" value="" style="endArrow=none;html=1;rounded=0;strokeWidth=4;fillColor=#d5e8d4;strokeColor=#82b366;" edge="1" parent="1">
          <mxGeometry width="50" height="50" relative="1" as="geometry">
            <mxPoint x="290" y="400" as="sourcePoint" />
            <mxPoint x="450" y="400" as="targetPoint" />
          </mxGeometry>
        </mxCell>
        <mxCell id="I7LE8Zz5mNCwxYkYfRfd-5" value="" style="endArrow=none;html=1;rounded=0;strokeWidth=2;entryX=0;entryY=0;entryDx=0;entryDy=0;" edge="1" parent="1" target="I7LE8Zz5mNCwxYkYfRfd-9">
          <mxGeometry width="50" height="50" relative="1" as="geometry">
            <mxPoint x="450" y="400" as="sourcePoint" />
            <mxPoint x="450" y="390" as="targetPoint" />
          </mxGeometry>
        </mxCell>
        <mxCell id="I7LE8Zz5mNCwxYkYfRfd-7" value="" style="endArrow=none;html=1;rounded=0;strokeWidth=2;" edge="1" parent="1">
          <mxGeometry width="50" height="50" relative="1" as="geometry">
            <mxPoint x="600" y="400" as="sourcePoint" />
            <mxPoint x="600" y="370" as="targetPoint" />
          </mxGeometry>
        </mxCell>
        <mxCell id="I7LE8Zz5mNCwxYkYfRfd-8" value="只匹配IDC1的玩家" style="text;html=1;whiteSpace=wrap;strokeColor=none;fillColor=none;align=center;verticalAlign=middle;rounded=0;" vertex="1" parent="1">
          <mxGeometry x="300" y="370" width="140" height="20" as="geometry" />
        </mxCell>
        <mxCell id="I7LE8Zz5mNCwxYkYfRfd-9" value="匹配IDC1+IDC2的玩家" style="text;html=1;whiteSpace=wrap;strokeColor=none;fillColor=none;align=center;verticalAlign=middle;rounded=0;" vertex="1" parent="1">
          <mxGeometry x="450" y="370" width="140" height="20" as="geometry" />
        </mxCell>
        <mxCell id="I7LE8Zz5mNCwxYkYfRfd-10" value="匹配所有玩家" style="text;html=1;whiteSpace=wrap;strokeColor=none;fillColor=none;align=center;verticalAlign=middle;rounded=0;" vertex="1" parent="1">
          <mxGeometry x="610" y="370" width="140" height="20" as="geometry" />
        </mxCell>
      </root>
    </mxGraphModel>
  </diagram>
  <diagram id="y5ENG7WOW5C9bJFZJoBX" name="GSM">
    <mxGraphModel dx="1354" dy="825" grid="1" gridSize="10" guides="1" tooltips="1" connect="1" arrows="1" fold="1" page="1" pageScale="1" pageWidth="2000" pageHeight="2000" math="0" shadow="0">
      <root>
        <mxCell id="0" />
        <mxCell id="1" parent="0" />
        <mxCell id="FJcjSY7ZnidctmAmEa1h-1" value="gameservermanager node1" style="rounded=0;whiteSpace=wrap;html=1;" vertex="1" parent="1">
          <mxGeometry x="340" y="220" width="120" height="60" as="geometry" />
        </mxCell>
        <mxCell id="FJcjSY7ZnidctmAmEa1h-2" value="gameservermanager node2" style="rounded=0;whiteSpace=wrap;html=1;" vertex="1" parent="1">
          <mxGeometry x="560" y="220" width="120" height="60" as="geometry" />
        </mxCell>
        <mxCell id="FJcjSY7ZnidctmAmEa1h-3" value="GS" style="rounded=0;whiteSpace=wrap;html=1;" vertex="1" parent="1">
          <mxGeometry x="310" y="380" width="60" height="60" as="geometry" />
        </mxCell>
        <mxCell id="FJcjSY7ZnidctmAmEa1h-4" value="GS" style="rounded=0;whiteSpace=wrap;html=1;" vertex="1" parent="1">
          <mxGeometry x="430" y="380" width="60" height="60" as="geometry" />
        </mxCell>
        <mxCell id="FJcjSY7ZnidctmAmEa1h-5" value="GS" style="rounded=0;whiteSpace=wrap;html=1;" vertex="1" parent="1">
          <mxGeometry x="550" y="380" width="60" height="60" as="geometry" />
        </mxCell>
        <mxCell id="FJcjSY7ZnidctmAmEa1h-6" value="GS" style="rounded=0;whiteSpace=wrap;html=1;" vertex="1" parent="1">
          <mxGeometry x="650" y="380" width="60" height="60" as="geometry" />
        </mxCell>
        <mxCell id="FJcjSY7ZnidctmAmEa1h-7" value="" style="endArrow=classic;startArrow=classic;html=1;rounded=0;exitX=0.5;exitY=0;exitDx=0;exitDy=0;" edge="1" parent="1" source="FJcjSY7ZnidctmAmEa1h-3">
          <mxGeometry width="50" height="50" relative="1" as="geometry">
            <mxPoint x="660" y="450" as="sourcePoint" />
            <mxPoint x="356" y="280" as="targetPoint" />
          </mxGeometry>
        </mxCell>
        <mxCell id="FJcjSY7ZnidctmAmEa1h-9" value="" style="endArrow=classic;startArrow=classic;html=1;rounded=0;exitX=0.5;exitY=0;exitDx=0;exitDy=0;entryX=0.167;entryY=1;entryDx=0;entryDy=0;entryPerimeter=0;" edge="1" parent="1" source="FJcjSY7ZnidctmAmEa1h-3" target="FJcjSY7ZnidctmAmEa1h-2">
          <mxGeometry width="50" height="50" relative="1" as="geometry">
            <mxPoint x="390" y="485" as="sourcePoint" />
            <mxPoint x="405" y="390" as="targetPoint" />
          </mxGeometry>
        </mxCell>
        <mxCell id="FJcjSY7ZnidctmAmEa1h-10" value="" style="endArrow=classic;startArrow=classic;html=1;rounded=0;exitX=0.5;exitY=0;exitDx=0;exitDy=0;entryX=0.35;entryY=1.017;entryDx=0;entryDy=0;entryPerimeter=0;" edge="1" parent="1" source="FJcjSY7ZnidctmAmEa1h-4" target="FJcjSY7ZnidctmAmEa1h-1">
          <mxGeometry width="50" height="50" relative="1" as="geometry">
            <mxPoint x="430" y="555" as="sourcePoint" />
            <mxPoint x="590" y="330" as="targetPoint" />
          </mxGeometry>
        </mxCell>
        <mxCell id="FJcjSY7ZnidctmAmEa1h-11" value="" style="endArrow=classic;startArrow=classic;html=1;rounded=0;exitX=0.383;exitY=0.983;exitDx=0;exitDy=0;exitPerimeter=0;" edge="1" parent="1" source="FJcjSY7ZnidctmAmEa1h-2">
          <mxGeometry width="50" height="50" relative="1" as="geometry">
            <mxPoint x="548" y="489" as="sourcePoint" />
            <mxPoint x="460" y="380" as="targetPoint" />
          </mxGeometry>
        </mxCell>
        <mxCell id="FJcjSY7ZnidctmAmEa1h-12" value="" style="endArrow=classic;startArrow=classic;html=1;rounded=0;exitX=0.5;exitY=0;exitDx=0;exitDy=0;entryX=0.642;entryY=1.017;entryDx=0;entryDy=0;entryPerimeter=0;" edge="1" parent="1" source="FJcjSY7ZnidctmAmEa1h-5" target="FJcjSY7ZnidctmAmEa1h-1">
          <mxGeometry width="50" height="50" relative="1" as="geometry">
            <mxPoint x="726" y="380" as="sourcePoint" />
            <mxPoint x="420" y="290" as="targetPoint" />
          </mxGeometry>
        </mxCell>
        <mxCell id="FJcjSY7ZnidctmAmEa1h-13" value="" style="endArrow=classic;startArrow=classic;html=1;rounded=0;entryX=0.5;entryY=0;entryDx=0;entryDy=0;" edge="1" parent="1" target="FJcjSY7ZnidctmAmEa1h-5">
          <mxGeometry width="50" height="50" relative="1" as="geometry">
            <mxPoint x="629" y="280" as="sourcePoint" />
            <mxPoint x="640" y="531" as="targetPoint" />
          </mxGeometry>
        </mxCell>
        <mxCell id="FJcjSY7ZnidctmAmEa1h-14" value="" style="endArrow=classic;startArrow=classic;html=1;rounded=0;exitX=0.85;exitY=1;exitDx=0;exitDy=0;exitPerimeter=0;entryX=0.5;entryY=0;entryDx=0;entryDy=0;" edge="1" parent="1" source="FJcjSY7ZnidctmAmEa1h-1" target="FJcjSY7ZnidctmAmEa1h-6">
          <mxGeometry width="50" height="50" relative="1" as="geometry">
            <mxPoint x="699" y="460" as="sourcePoint" />
            <mxPoint x="650" y="557" as="targetPoint" />
          </mxGeometry>
        </mxCell>
        <mxCell id="FJcjSY7ZnidctmAmEa1h-15" value="" style="endArrow=classic;startArrow=classic;html=1;rounded=0;exitX=0.5;exitY=0;exitDx=0;exitDy=0;entryX=0.75;entryY=1;entryDx=0;entryDy=0;" edge="1" parent="1" source="FJcjSY7ZnidctmAmEa1h-6" target="FJcjSY7ZnidctmAmEa1h-2">
          <mxGeometry width="50" height="50" relative="1" as="geometry">
            <mxPoint x="720" y="410" as="sourcePoint" />
            <mxPoint x="958" y="510" as="targetPoint" />
          </mxGeometry>
        </mxCell>
        <mxCell id="FJcjSY7ZnidctmAmEa1h-16" value="gRPC stream" style="text;html=1;whiteSpace=wrap;strokeColor=none;fillColor=none;align=center;verticalAlign=middle;rounded=0;" vertex="1" parent="1">
          <mxGeometry x="260" y="310" width="100" height="30" as="geometry" />
        </mxCell>
        <mxCell id="FJcjSY7ZnidctmAmEa1h-17" value="matchmakingservice" style="rounded=0;whiteSpace=wrap;html=1;" vertex="1" parent="1">
          <mxGeometry x="60" y="220" width="120" height="60" as="geometry" />
        </mxCell>
        <mxCell id="FJcjSY7ZnidctmAmEa1h-18" value="" style="endArrow=classic;html=1;rounded=0;exitX=1;exitY=0.5;exitDx=0;exitDy=0;entryX=0;entryY=0.5;entryDx=0;entryDy=0;" edge="1" parent="1" source="FJcjSY7ZnidctmAmEa1h-17" target="FJcjSY7ZnidctmAmEa1h-1">
          <mxGeometry width="50" height="50" relative="1" as="geometry">
            <mxPoint x="660" y="450" as="sourcePoint" />
            <mxPoint x="710" y="400" as="targetPoint" />
          </mxGeometry>
        </mxCell>
        <mxCell id="FJcjSY7ZnidctmAmEa1h-19" value="FindAvailableGameServer" style="text;html=1;whiteSpace=wrap;strokeColor=none;fillColor=none;align=center;verticalAlign=middle;rounded=0;" vertex="1" parent="1">
          <mxGeometry x="230" y="220" width="60" height="30" as="geometry" />
        </mxCell>
      </root>
    </mxGraphModel>
  </diagram>
  <diagram id="lRYLNFtdgojezNIEJui6" name="eventlog">
    <mxGraphModel dx="1354" dy="825" grid="1" gridSize="10" guides="1" tooltips="1" connect="1" arrows="1" fold="1" page="1" pageScale="1" pageWidth="2000" pageHeight="2000" math="0" shadow="0">
      <root>
        <mxCell id="0" />
        <mxCell id="1" parent="0" />
      </root>
    </mxGraphModel>
  </diagram>
</mxfile>
